<?xml version="1.0" encoding="utf-8" standalone="no"?>
<!DOCTYPE svg PUBLIC "-//W3C//DTD SVG 1.1//EN"
  "http://www.w3.org/Graphics/SVG/1.1/DTD/svg11.dtd">
<svg xmlns:xlink="http://www.w3.org/1999/xlink" width="424.94625pt" height="352.912031pt" viewBox="0 0 424.94625 352.912031" xmlns="http://www.w3.org/2000/svg" version="1.1">
 <metadata>
  <rdf:RDF xmlns:dc="http://purl.org/dc/elements/1.1/" xmlns:cc="http://creativecommons.org/ns#" xmlns:rdf="http://www.w3.org/1999/02/22-rdf-syntax-ns#">
   <cc:Work>
    <dc:type rdf:resource="http://purl.org/dc/dcmitype/StillImage"/>
    <dc:date>2026-03-09T15:36:53.099297</dc:date>
    <dc:format>image/svg+xml</dc:format>
    <dc:creator>
     <cc:Agent>
      <dc:title>Matplotlib v3.10.8, https://matplotlib.org/</dc:title>
     </cc:Agent>
    </dc:creator>
   </cc:Work>
  </rdf:RDF>
 </metadata>
 <defs>
  <style type="text/css">*{stroke-linejoin: round; stroke-linecap: butt}</style>
 </defs>
 <g id="figure_1">
  <g id="patch_1">
   <path d="M 0 352.912031 
L 424.94625 352.912031 
L 424.94625 0 
L 0 0 
z
" style="fill: #ffffff"/>
  </g>
  <g id="axes_1">
   <g id="patch_2">
    <path d="M 53.35625 305.677656 
L 417.74625 305.677656 
L 417.74625 24.597656 
L 53.35625 24.597656 
z
" style="fill: #ffffff"/>
   </g>
   <g id="matplotlib.axis_1">
    <g id="xtick_1">
     <g id="line2d_1">
      <defs>
       <path id="mb17845303c" d="M 0 0 
L 0 3.5 
" style="stroke: #000000; stroke-width: 0.8"/>
      </defs>
      <g>
       <use xlink:href="#mb17845303c" x="69.919432" y="305.677656" style="stroke: #000000; stroke-width: 0.8"/>
      </g>
     </g>
     <g id="text_1">
      <!-- $\Gamma$ -->
      <g transform="translate(65.719432 324.075313) scale(0.15 -0.15)">
       <defs>
        <path id="DejaVuSans-393" d="M 628 0 
L 628 4666 
L 3531 4666 
L 3531 4134 
L 1259 4134 
L 1259 0 
L 628 0 
z
" transform="scale(0.015625)"/>
       </defs>
       <use xlink:href="#DejaVuSans-393" transform="translate(0 0.09375)"/>
      </g>
     </g>
    </g>
    <g id="xtick_2">
     <g id="line2d_2">
      <g>
       <use xlink:href="#mb17845303c" x="180.340644" y="305.677656" style="stroke: #000000; stroke-width: 0.8"/>
      </g>
     </g>
     <g id="text_2">
      <!-- K' -->
      <g transform="translate(173.360956 324.075313) scale(0.15 -0.15)">
       <defs>
        <path id="DejaVuSans-4b" d="M 628 4666 
L 1259 4666 
L 1259 2694 
L 3353 4666 
L 4166 4666 
L 1850 2491 
L 4331 0 
L 3500 0 
L 1259 2247 
L 1259 0 
L 628 0 
L 628 4666 
z
" transform="scale(0.015625)"/>
        <path id="DejaVuSans-27" d="M 1147 4666 
L 1147 2931 
L 616 2931 
L 616 4666 
L 1147 4666 
z
" transform="scale(0.015625)"/>
       </defs>
       <use xlink:href="#DejaVuSans-4b"/>
       <use xlink:href="#DejaVuSans-27" transform="translate(65.576172 0)"/>
      </g>
     </g>
    </g>
    <g id="xtick_3">
     <g id="line2d_3">
      <g>
       <use xlink:href="#mb17845303c" x="234.424503" y="305.677656" style="stroke: #000000; stroke-width: 0.8"/>
      </g>
     </g>
     <g id="text_3">
      <!-- M -->
      <g transform="translate(227.953409 324.075313) scale(0.15 -0.15)">
       <defs>
        <path id="DejaVuSans-4d" d="M 628 4666 
L 1569 4666 
L 2759 1491 
L 3956 4666 
L 4897 4666 
L 4897 0 
L 4281 0 
L 4281 4097 
L 3078 897 
L 2444 897 
L 1241 4097 
L 1241 0 
L 628 0 
L 628 4666 
z
" transform="scale(0.015625)"/>
       </defs>
       <use xlink:href="#DejaVuSans-4d"/>
      </g>
     </g>
    </g>
    <g id="xtick_4">
     <g id="line2d_4">
      <g>
       <use xlink:href="#mb17845303c" x="290.761856" y="305.677656" style="stroke: #000000; stroke-width: 0.8"/>
      </g>
     </g>
     <g id="text_4">
      <!-- K -->
      <g transform="translate(285.843497 324.075313) scale(0.15 -0.15)">
       <use xlink:href="#DejaVuSans-4b"/>
      </g>
     </g>
    </g>
    <g id="xtick_5">
     <g id="line2d_5">
      <g>
       <use xlink:href="#mb17845303c" x="401.183068" y="305.677656" style="stroke: #000000; stroke-width: 0.8"/>
      </g>
     </g>
     <g id="text_5">
      <!-- $\Gamma$ -->
      <g transform="translate(396.983068 324.075313) scale(0.15 -0.15)">
       <use xlink:href="#DejaVuSans-393" transform="translate(0 0.09375)"/>
      </g>
     </g>
    </g>
    <g id="text_6">
     <!-- k-path -->
     <g transform="translate(211.451641 342.5925) scale(0.15 -0.15)">
      <defs>
       <path id="DejaVuSans-6b" d="M 581 4863 
L 1159 4863 
L 1159 1991 
L 2875 3500 
L 3609 3500 
L 1753 1863 
L 3688 0 
L 2938 0 
L 1159 1709 
L 1159 0 
L 581 0 
L 581 4863 
z
" transform="scale(0.015625)"/>
       <path id="DejaVuSans-2d" d="M 313 2009 
L 1997 2009 
L 1997 1497 
L 313 1497 
L 313 2009 
z
" transform="scale(0.015625)"/>
       <path id="DejaVuSans-70" d="M 1159 525 
L 1159 -1331 
L 581 -1331 
L 581 3500 
L 1159 3500 
L 1159 2969 
Q 1341 3281 1617 3432 
Q 1894 3584 2278 3584 
Q 2916 3584 3314 3078 
Q 3713 2572 3713 1747 
Q 3713 922 3314 415 
Q 2916 -91 2278 -91 
Q 1894 -91 1617 61 
Q 1341 213 1159 525 
z
M 3116 1747 
Q 3116 2381 2855 2742 
Q 2594 3103 2138 3103 
Q 1681 3103 1420 2742 
Q 1159 2381 1159 1747 
Q 1159 1113 1420 752 
Q 1681 391 2138 391 
Q 2594 391 2855 752 
Q 3116 1113 3116 1747 
z
" transform="scale(0.015625)"/>
       <path id="DejaVuSans-61" d="M 2194 1759 
Q 1497 1759 1228 1600 
Q 959 1441 959 1056 
Q 959 750 1161 570 
Q 1363 391 1709 391 
Q 2188 391 2477 730 
Q 2766 1069 2766 1631 
L 2766 1759 
L 2194 1759 
z
M 3341 1997 
L 3341 0 
L 2766 0 
L 2766 531 
Q 2569 213 2275 61 
Q 1981 -91 1556 -91 
Q 1019 -91 701 211 
Q 384 513 384 1019 
Q 384 1609 779 1909 
Q 1175 2209 1959 2209 
L 2766 2209 
L 2766 2266 
Q 2766 2663 2505 2880 
Q 2244 3097 1772 3097 
Q 1472 3097 1187 3025 
Q 903 2953 641 2809 
L 641 3341 
Q 956 3463 1253 3523 
Q 1550 3584 1831 3584 
Q 2591 3584 2966 3190 
Q 3341 2797 3341 1997 
z
" transform="scale(0.015625)"/>
       <path id="DejaVuSans-74" d="M 1172 4494 
L 1172 3500 
L 2356 3500 
L 2356 3053 
L 1172 3053 
L 1172 1153 
Q 1172 725 1289 603 
Q 1406 481 1766 481 
L 2356 481 
L 2356 0 
L 1766 0 
Q 1100 0 847 248 
Q 594 497 594 1153 
L 594 3053 
L 172 3053 
L 172 3500 
L 594 3500 
L 594 4494 
L 1172 4494 
z
" transform="scale(0.015625)"/>
       <path id="DejaVuSans-68" d="M 3513 2113 
L 3513 0 
L 2938 0 
L 2938 2094 
Q 2938 2591 2744 2837 
Q 2550 3084 2163 3084 
Q 1697 3084 1428 2787 
Q 1159 2491 1159 1978 
L 1159 0 
L 581 0 
L 581 4863 
L 1159 4863 
L 1159 2956 
Q 1366 3272 1645 3428 
Q 1925 3584 2291 3584 
Q 2894 3584 3203 3211 
Q 3513 2838 3513 2113 
z
" transform="scale(0.015625)"/>
      </defs>
      <use xlink:href="#DejaVuSans-6b"/>
      <use xlink:href="#DejaVuSans-2d" transform="translate(57.910156 0)"/>
      <use xlink:href="#DejaVuSans-70" transform="translate(93.994141 0)"/>
      <use xlink:href="#DejaVuSans-61" transform="translate(157.470703 0)"/>
      <use xlink:href="#DejaVuSans-74" transform="translate(218.75 0)"/>
      <use xlink:href="#DejaVuSans-68" transform="translate(257.958984 0)"/>
     </g>
    </g>
   </g>
   <g id="matplotlib.axis_2">
    <g id="ytick_1">
     <g id="line2d_6">
      <defs>
       <path id="m12a0f97e38" d="M 0 0 
L -3.5 0 
" style="stroke: #000000; stroke-width: 0.8"/>
      </defs>
      <g>
       <use xlink:href="#m12a0f97e38" x="53.35625" y="266.977171" style="stroke: #000000; stroke-width: 0.8"/>
      </g>
     </g>
     <g id="text_7">
      <!-- −2 -->
      <g transform="translate(25.717188 272.296077) scale(0.14 -0.14)">
       <defs>
        <path id="DejaVuSans-2212" d="M 678 2272 
L 4684 2272 
L 4684 1741 
L 678 1741 
L 678 2272 
z
" transform="scale(0.015625)"/>
        <path id="DejaVuSans-32" d="M 1228 531 
L 3431 531 
L 3431 0 
L 469 0 
L 469 531 
Q 828 903 1448 1529 
Q 2069 2156 2228 2338 
Q 2531 2678 2651 2914 
Q 2772 3150 2772 3378 
Q 2772 3750 2511 3984 
Q 2250 4219 1831 4219 
Q 1534 4219 1204 4116 
Q 875 4013 500 3803 
L 500 4441 
Q 881 4594 1212 4672 
Q 1544 4750 1819 4750 
Q 2544 4750 2975 4387 
Q 3406 4025 3406 3419 
Q 3406 3131 3298 2873 
Q 3191 2616 2906 2266 
Q 2828 2175 2409 1742 
Q 1991 1309 1228 531 
z
" transform="scale(0.015625)"/>
       </defs>
       <use xlink:href="#DejaVuSans-2212"/>
       <use xlink:href="#DejaVuSans-32" transform="translate(83.789062 0)"/>
      </g>
     </g>
    </g>
    <g id="ytick_2">
     <g id="line2d_7">
      <g>
       <use xlink:href="#m12a0f97e38" x="53.35625" y="224.968746" style="stroke: #000000; stroke-width: 0.8"/>
      </g>
     </g>
     <g id="text_8">
      <!-- −1 -->
      <g transform="translate(25.717188 230.287653) scale(0.14 -0.14)">
       <defs>
        <path id="DejaVuSans-31" d="M 794 531 
L 1825 531 
L 1825 4091 
L 703 3866 
L 703 4441 
L 1819 4666 
L 2450 4666 
L 2450 531 
L 3481 531 
L 3481 0 
L 794 0 
L 794 531 
z
" transform="scale(0.015625)"/>
       </defs>
       <use xlink:href="#DejaVuSans-2212"/>
       <use xlink:href="#DejaVuSans-31" transform="translate(83.789062 0)"/>
      </g>
     </g>
    </g>
    <g id="ytick_3">
     <g id="line2d_8">
      <g>
       <use xlink:href="#m12a0f97e38" x="53.35625" y="182.960322" style="stroke: #000000; stroke-width: 0.8"/>
      </g>
     </g>
     <g id="text_9">
      <!-- 0 -->
      <g transform="translate(37.44875 188.279228) scale(0.14 -0.14)">
       <defs>
        <path id="DejaVuSans-30" d="M 2034 4250 
Q 1547 4250 1301 3770 
Q 1056 3291 1056 2328 
Q 1056 1369 1301 889 
Q 1547 409 2034 409 
Q 2525 409 2770 889 
Q 3016 1369 3016 2328 
Q 3016 3291 2770 3770 
Q 2525 4250 2034 4250 
z
M 2034 4750 
Q 2819 4750 3233 4129 
Q 3647 3509 3647 2328 
Q 3647 1150 3233 529 
Q 2819 -91 2034 -91 
Q 1250 -91 836 529 
Q 422 1150 422 2328 
Q 422 3509 836 4129 
Q 1250 4750 2034 4750 
z
" transform="scale(0.015625)"/>
       </defs>
       <use xlink:href="#DejaVuSans-30"/>
      </g>
     </g>
    </g>
    <g id="ytick_4">
     <g id="line2d_9">
      <g>
       <use xlink:href="#m12a0f97e38" x="53.35625" y="140.951897" style="stroke: #000000; stroke-width: 0.8"/>
      </g>
     </g>
     <g id="text_10">
      <!-- 1 -->
      <g transform="translate(37.44875 146.270803) scale(0.14 -0.14)">
       <use xlink:href="#DejaVuSans-31"/>
      </g>
     </g>
    </g>
    <g id="ytick_5">
     <g id="line2d_10">
      <g>
       <use xlink:href="#m12a0f97e38" x="53.35625" y="98.943472" style="stroke: #000000; stroke-width: 0.8"/>
      </g>
     </g>
     <g id="text_11">
      <!-- 2 -->
      <g transform="translate(37.44875 104.262378) scale(0.14 -0.14)">
       <use xlink:href="#DejaVuSans-32"/>
      </g>
     </g>
    </g>
    <g id="ytick_6">
     <g id="line2d_11">
      <g>
       <use xlink:href="#m12a0f97e38" x="53.35625" y="56.935047" style="stroke: #000000; stroke-width: 0.8"/>
      </g>
     </g>
     <g id="text_12">
      <!-- 3 -->
      <g transform="translate(37.44875 62.253953) scale(0.14 -0.14)">
       <defs>
        <path id="DejaVuSans-33" d="M 2597 2516 
Q 3050 2419 3304 2112 
Q 3559 1806 3559 1356 
Q 3559 666 3084 287 
Q 2609 -91 1734 -91 
Q 1441 -91 1130 -33 
Q 819 25 488 141 
L 488 750 
Q 750 597 1062 519 
Q 1375 441 1716 441 
Q 2309 441 2620 675 
Q 2931 909 2931 1356 
Q 2931 1769 2642 2001 
Q 2353 2234 1838 2234 
L 1294 2234 
L 1294 2753 
L 1863 2753 
Q 2328 2753 2575 2939 
Q 2822 3125 2822 3475 
Q 2822 3834 2567 4026 
Q 2313 4219 1838 4219 
Q 1578 4219 1281 4162 
Q 984 4106 628 3988 
L 628 4550 
Q 988 4650 1302 4700 
Q 1616 4750 1894 4750 
Q 2613 4750 3031 4423 
Q 3450 4097 3450 3541 
Q 3450 3153 3228 2886 
Q 3006 2619 2597 2516 
z
" transform="scale(0.015625)"/>
       </defs>
       <use xlink:href="#DejaVuSans-33"/>
      </g>
     </g>
    </g>
    <g id="text_13">
     <!-- Energy -->
     <g transform="translate(18.597656 191.397031) rotate(-90) scale(0.15 -0.15)">
      <defs>
       <path id="DejaVuSans-45" d="M 628 4666 
L 3578 4666 
L 3578 4134 
L 1259 4134 
L 1259 2753 
L 3481 2753 
L 3481 2222 
L 1259 2222 
L 1259 531 
L 3634 531 
L 3634 0 
L 628 0 
L 628 4666 
z
" transform="scale(0.015625)"/>
       <path id="DejaVuSans-6e" d="M 3513 2113 
L 3513 0 
L 2938 0 
L 2938 2094 
Q 2938 2591 2744 2837 
Q 2550 3084 2163 3084 
Q 1697 3084 1428 2787 
Q 1159 2491 1159 1978 
L 1159 0 
L 581 0 
L 581 3500 
L 1159 3500 
L 1159 2956 
Q 1366 3272 1645 3428 
Q 1925 3584 2291 3584 
Q 2894 3584 3203 3211 
Q 3513 2838 3513 2113 
z
" transform="scale(0.015625)"/>
       <path id="DejaVuSans-65" d="M 3597 1894 
L 3597 1613 
L 953 1613 
Q 991 1019 1311 708 
Q 1631 397 2203 397 
Q 2534 397 2845 478 
Q 3156 559 3463 722 
L 3463 178 
Q 3153 47 2828 -22 
Q 2503 -91 2169 -91 
Q 1331 -91 842 396 
Q 353 884 353 1716 
Q 353 2575 817 3079 
Q 1281 3584 2069 3584 
Q 2775 3584 3186 3129 
Q 3597 2675 3597 1894 
z
M 3022 2063 
Q 3016 2534 2758 2815 
Q 2500 3097 2075 3097 
Q 1594 3097 1305 2825 
Q 1016 2553 972 2059 
L 3022 2063 
z
" transform="scale(0.015625)"/>
       <path id="DejaVuSans-72" d="M 2631 2963 
Q 2534 3019 2420 3045 
Q 2306 3072 2169 3072 
Q 1681 3072 1420 2755 
Q 1159 2438 1159 1844 
L 1159 0 
L 581 0 
L 581 3500 
L 1159 3500 
L 1159 2956 
Q 1341 3275 1631 3429 
Q 1922 3584 2338 3584 
Q 2397 3584 2469 3576 
Q 2541 3569 2628 3553 
L 2631 2963 
z
" transform="scale(0.015625)"/>
       <path id="DejaVuSans-67" d="M 2906 1791 
Q 2906 2416 2648 2759 
Q 2391 3103 1925 3103 
Q 1463 3103 1205 2759 
Q 947 2416 947 1791 
Q 947 1169 1205 825 
Q 1463 481 1925 481 
Q 2391 481 2648 825 
Q 2906 1169 2906 1791 
z
M 3481 434 
Q 3481 -459 3084 -895 
Q 2688 -1331 1869 -1331 
Q 1566 -1331 1297 -1286 
Q 1028 -1241 775 -1147 
L 775 -588 
Q 1028 -725 1275 -790 
Q 1522 -856 1778 -856 
Q 2344 -856 2625 -561 
Q 2906 -266 2906 331 
L 2906 616 
Q 2728 306 2450 153 
Q 2172 0 1784 0 
Q 1141 0 747 490 
Q 353 981 353 1791 
Q 353 2603 747 3093 
Q 1141 3584 1784 3584 
Q 2172 3584 2450 3431 
Q 2728 3278 2906 2969 
L 2906 3500 
L 3481 3500 
L 3481 434 
z
" transform="scale(0.015625)"/>
       <path id="DejaVuSans-79" d="M 2059 -325 
Q 1816 -950 1584 -1140 
Q 1353 -1331 966 -1331 
L 506 -1331 
L 506 -850 
L 844 -850 
Q 1081 -850 1212 -737 
Q 1344 -625 1503 -206 
L 1606 56 
L 191 3500 
L 800 3500 
L 1894 763 
L 2988 3500 
L 3597 3500 
L 2059 -325 
z
" transform="scale(0.015625)"/>
      </defs>
      <use xlink:href="#DejaVuSans-45"/>
      <use xlink:href="#DejaVuSans-6e" transform="translate(63.183594 0)"/>
      <use xlink:href="#DejaVuSans-65" transform="translate(126.5625 0)"/>
      <use xlink:href="#DejaVuSans-72" transform="translate(188.085938 0)"/>
      <use xlink:href="#DejaVuSans-67" transform="translate(227.449219 0)"/>
      <use xlink:href="#DejaVuSans-79" transform="translate(290.925781 0)"/>
     </g>
    </g>
   </g>
   <g id="line2d_12">
    <path d="M 69.919432 292.901293 
L 74.42642 292.729293 
L 78.933408 292.215233 
L 83.440397 291.361382 
L 87.947385 290.169401 
L 92.454373 288.640794 
L 96.961361 286.777511 
L 101.46835 284.582677 
L 105.975338 282.061458 
L 110.482326 279.222023 
L 114.989314 276.076615 
L 119.496303 272.642719 
L 124.003291 268.944349 
L 128.510279 265.013469 
L 135.270761 258.775145 
L 153.298714 241.751539 
L 157.805703 237.950514 
L 162.312691 234.60321 
L 164.566185 233.148308 
L 166.819679 231.863818 
L 169.073173 230.765542 
L 171.326667 229.865704 
L 173.580162 229.171737 
L 175.833656 228.685323 
L 178.08715 228.401899 
L 180.340644 228.310747 
L 182.594138 228.395711 
L 184.847632 228.636372 
L 189.35462 229.490506 
L 193.861609 230.678567 
L 207.382573 234.585599 
L 211.889562 235.609958 
L 216.39655 236.371333 
L 220.903538 236.826112 
L 225.410526 236.94346 
L 229.917515 236.701233 
L 234.424503 236.082957 
L 238.931491 235.075665 
L 243.438479 233.668465 
L 247.945468 231.851704 
L 252.452456 229.616667 
L 256.959444 226.95579 
L 261.466432 223.863447 
L 265.973421 220.337596 
L 270.480409 216.383126 
L 274.987397 212.019667 
L 279.494385 207.304546 
L 286.254868 200.117502 
L 288.508362 198.240441 
L 290.761856 197.440986 
L 293.01535 198.276492 
L 295.268844 200.33496 
L 297.522338 202.981403 
L 302.029327 208.954156 
L 311.043303 221.631627 
L 320.05728 234.20971 
L 326.817762 243.229654 
L 331.32475 248.953605 
L 335.831739 254.400753 
L 340.338727 259.539438 
L 344.845715 264.343982 
L 349.352703 268.794377 
L 353.859692 272.875922 
L 358.36668 276.578774 
L 362.873668 279.897408 
L 367.380656 282.830005 
L 371.887645 285.377777 
L 376.394633 287.544259 
L 380.901621 289.3346 
L 385.408609 290.75489 
L 389.915598 291.811536 
L 394.422586 292.510737 
L 398.929574 292.858072 
L 401.183068 292.901293 
L 401.183068 292.901293 
" clip-path="url(#pccf0ace58e)" style="fill: none; stroke: #000080; stroke-width: 1.5; stroke-linecap: square"/>
   </g>
   <g id="line2d_13">
    <path d="M 69.919432 37.37402 
L 72.172926 37.48218 
L 74.42642 37.806032 
L 76.679914 38.344146 
L 78.933408 39.094444 
L 81.186902 40.054208 
L 83.440397 41.220083 
L 85.693891 42.588086 
L 87.947385 44.153617 
L 90.200879 45.911468 
L 92.454373 47.85584 
L 94.707867 49.980356 
L 96.961361 52.278079 
L 101.46835 57.362696 
L 105.975338 63.043675 
L 110.482326 69.247257 
L 114.989314 75.892589 
L 119.496303 82.89234 
L 126.256785 93.850893 
L 142.031244 119.743954 
L 146.538232 126.707614 
L 151.04522 133.241482 
L 155.552209 139.199726 
L 157.805703 141.914644 
L 160.059197 144.426888 
L 162.312691 146.716727 
L 164.566185 148.765334 
L 166.819679 150.555688 
L 169.073173 152.073685 
L 171.326667 153.309371 
L 173.580162 154.258118 
L 175.833656 154.921562 
L 178.08715 155.30806 
L 180.340644 155.432561 
L 182.594138 155.315854 
L 184.847632 154.983347 
L 187.101126 154.463571 
L 189.35462 153.786671 
L 193.861609 152.082391 
L 200.622091 149.068886 
L 207.382573 146.067109 
L 211.889562 144.31274 
L 216.39655 142.881012 
L 220.903538 141.852615 
L 223.157032 141.509557 
L 225.410526 141.289099 
L 227.664021 141.196448 
L 229.917515 141.235955 
L 232.171009 141.41117 
L 234.424503 141.724888 
L 236.677997 142.17919 
L 238.931491 142.775479 
L 241.184985 143.514508 
L 243.438479 144.396409 
L 245.691974 145.420712 
L 247.945468 146.586366 
L 250.198962 147.891751 
L 252.452456 149.334695 
L 256.959444 152.621821 
L 261.466432 156.419334 
L 265.973421 160.689454 
L 270.480409 165.382986 
L 274.987397 170.432968 
L 286.254868 183.502216 
L 288.508362 185.471124 
L 290.761856 186.302323 
L 293.01535 185.433467 
L 295.268844 183.271926 
L 297.522338 180.448453 
L 299.775833 177.27599 
L 304.282821 170.335824 
L 308.789809 162.878939 
L 313.296797 155.052046 
L 320.05728 142.806638 
L 329.071256 125.920662 
L 340.338727 104.750244 
L 347.099209 92.483084 
L 351.606197 84.65308 
L 356.113186 77.194079 
L 360.620174 70.182969 
L 365.127162 63.693185 
L 369.63415 57.793554 
L 374.141139 52.547202 
L 376.394633 50.186926 
L 378.648127 48.010553 
L 380.901621 46.02394 
L 383.155115 44.232416 
L 385.408609 42.640762 
L 387.662103 41.253194 
L 389.915598 40.07334 
L 392.169092 39.104227 
L 394.422586 38.348269 
L 396.67608 37.807253 
L 398.929574 37.482333 
L 401.183068 37.37402 
L 401.183068 37.37402 
" clip-path="url(#pccf0ace58e)" style="fill: none; stroke: #000080; stroke-width: 1.5; stroke-linecap: square"/>
   </g>
   <g id="line2d_14">
    <path d="M 69.919432 305.677656 
L 69.919432 24.597656 
" clip-path="url(#pccf0ace58e)" style="fill: none; stroke-dasharray: 1.5,2.475; stroke-dashoffset: 0; stroke: #808080; stroke-opacity: 0.7; stroke-width: 1.5"/>
   </g>
   <g id="line2d_15">
    <path d="M 180.340644 305.677656 
L 180.340644 24.597656 
" clip-path="url(#pccf0ace58e)" style="fill: none; stroke-dasharray: 1.5,2.475; stroke-dashoffset: 0; stroke: #808080; stroke-opacity: 0.7; stroke-width: 1.5"/>
   </g>
   <g id="line2d_16">
    <path d="M 234.424503 305.677656 
L 234.424503 24.597656 
" clip-path="url(#pccf0ace58e)" style="fill: none; stroke-dasharray: 1.5,2.475; stroke-dashoffset: 0; stroke: #808080; stroke-opacity: 0.7; stroke-width: 1.5"/>
   </g>
   <g id="line2d_17">
    <path d="M 290.761856 305.677656 
L 290.761856 24.597656 
" clip-path="url(#pccf0ace58e)" style="fill: none; stroke-dasharray: 1.5,2.475; stroke-dashoffset: 0; stroke: #808080; stroke-opacity: 0.7; stroke-width: 1.5"/>
   </g>
   <g id="line2d_18">
    <path d="M 401.183068 305.677656 
L 401.183068 24.597656 
" clip-path="url(#pccf0ace58e)" style="fill: none; stroke-dasharray: 1.5,2.475; stroke-dashoffset: 0; stroke: #808080; stroke-opacity: 0.7; stroke-width: 1.5"/>
   </g>
   <g id="patch_3">
    <path d="M 53.35625 305.677656 
L 53.35625 24.597656 
" style="fill: none; stroke: #000000; stroke-width: 0.8; stroke-linejoin: miter; stroke-linecap: square"/>
   </g>
   <g id="patch_4">
    <path d="M 417.74625 305.677656 
L 417.74625 24.597656 
" style="fill: none; stroke: #000000; stroke-width: 0.8; stroke-linejoin: miter; stroke-linecap: square"/>
   </g>
   <g id="patch_5">
    <path d="M 53.35625 305.677656 
L 417.74625 305.677656 
" style="fill: none; stroke: #000000; stroke-width: 0.8; stroke-linejoin: miter; stroke-linecap: square"/>
   </g>
   <g id="patch_6">
    <path d="M 53.35625 24.597656 
L 417.74625 24.597656 
" style="fill: none; stroke: #000000; stroke-width: 0.8; stroke-linejoin: miter; stroke-linecap: square"/>
   </g>
   <g id="text_14">
    <!-- t1 = 1.0, t2 = 0.1, phi = 0.785, M = 0.5 -->
    <g transform="translate(86.295391 18.597656) scale(0.15 -0.15)">
     <defs>
      <path id="DejaVuSans-20" transform="scale(0.015625)"/>
      <path id="DejaVuSans-3d" d="M 678 2906 
L 4684 2906 
L 4684 2381 
L 678 2381 
L 678 2906 
z
M 678 1631 
L 4684 1631 
L 4684 1100 
L 678 1100 
L 678 1631 
z
" transform="scale(0.015625)"/>
      <path id="DejaVuSans-2e" d="M 684 794 
L 1344 794 
L 1344 0 
L 684 0 
L 684 794 
z
" transform="scale(0.015625)"/>
      <path id="DejaVuSans-2c" d="M 750 794 
L 1409 794 
L 1409 256 
L 897 -744 
L 494 -744 
L 750 256 
L 750 794 
z
" transform="scale(0.015625)"/>
      <path id="DejaVuSans-69" d="M 603 3500 
L 1178 3500 
L 1178 0 
L 603 0 
L 603 3500 
z
M 603 4863 
L 1178 4863 
L 1178 4134 
L 603 4134 
L 603 4863 
z
" transform="scale(0.015625)"/>
      <path id="DejaVuSans-37" d="M 525 4666 
L 3525 4666 
L 3525 4397 
L 1831 0 
L 1172 0 
L 2766 4134 
L 525 4134 
L 525 4666 
z
" transform="scale(0.015625)"/>
      <path id="DejaVuSans-38" d="M 2034 2216 
Q 1584 2216 1326 1975 
Q 1069 1734 1069 1313 
Q 1069 891 1326 650 
Q 1584 409 2034 409 
Q 2484 409 2743 651 
Q 3003 894 3003 1313 
Q 3003 1734 2745 1975 
Q 2488 2216 2034 2216 
z
M 1403 2484 
Q 997 2584 770 2862 
Q 544 3141 544 3541 
Q 544 4100 942 4425 
Q 1341 4750 2034 4750 
Q 2731 4750 3128 4425 
Q 3525 4100 3525 3541 
Q 3525 3141 3298 2862 
Q 3072 2584 2669 2484 
Q 3125 2378 3379 2068 
Q 3634 1759 3634 1313 
Q 3634 634 3220 271 
Q 2806 -91 2034 -91 
Q 1263 -91 848 271 
Q 434 634 434 1313 
Q 434 1759 690 2068 
Q 947 2378 1403 2484 
z
M 1172 3481 
Q 1172 3119 1398 2916 
Q 1625 2713 2034 2713 
Q 2441 2713 2670 2916 
Q 2900 3119 2900 3481 
Q 2900 3844 2670 4047 
Q 2441 4250 2034 4250 
Q 1625 4250 1398 4047 
Q 1172 3844 1172 3481 
z
" transform="scale(0.015625)"/>
      <path id="DejaVuSans-35" d="M 691 4666 
L 3169 4666 
L 3169 4134 
L 1269 4134 
L 1269 2991 
Q 1406 3038 1543 3061 
Q 1681 3084 1819 3084 
Q 2600 3084 3056 2656 
Q 3513 2228 3513 1497 
Q 3513 744 3044 326 
Q 2575 -91 1722 -91 
Q 1428 -91 1123 -41 
Q 819 9 494 109 
L 494 744 
Q 775 591 1075 516 
Q 1375 441 1709 441 
Q 2250 441 2565 725 
Q 2881 1009 2881 1497 
Q 2881 1984 2565 2268 
Q 2250 2553 1709 2553 
Q 1456 2553 1204 2497 
Q 953 2441 691 2322 
L 691 4666 
z
" transform="scale(0.015625)"/>
     </defs>
     <use xlink:href="#DejaVuSans-74"/>
     <use xlink:href="#DejaVuSans-31" transform="translate(39.208984 0)"/>
     <use xlink:href="#DejaVuSans-20" transform="translate(102.832031 0)"/>
     <use xlink:href="#DejaVuSans-3d" transform="translate(134.619141 0)"/>
     <use xlink:href="#DejaVuSans-20" transform="translate(218.408203 0)"/>
     <use xlink:href="#DejaVuSans-31" transform="translate(250.195312 0)"/>
     <use xlink:href="#DejaVuSans-2e" transform="translate(313.818359 0)"/>
     <use xlink:href="#DejaVuSans-30" transform="translate(345.605469 0)"/>
     <use xlink:href="#DejaVuSans-2c" transform="translate(409.228516 0)"/>
     <use xlink:href="#DejaVuSans-20" transform="translate(441.015625 0)"/>
     <use xlink:href="#DejaVuSans-74" transform="translate(472.802734 0)"/>
     <use xlink:href="#DejaVuSans-32" transform="translate(512.011719 0)"/>
     <use xlink:href="#DejaVuSans-20" transform="translate(575.634766 0)"/>
     <use xlink:href="#DejaVuSans-3d" transform="translate(607.421875 0)"/>
     <use xlink:href="#DejaVuSans-20" transform="translate(691.210938 0)"/>
     <use xlink:href="#DejaVuSans-30" transform="translate(722.998047 0)"/>
     <use xlink:href="#DejaVuSans-2e" transform="translate(786.621094 0)"/>
     <use xlink:href="#DejaVuSans-31" transform="translate(818.408203 0)"/>
     <use xlink:href="#DejaVuSans-2c" transform="translate(882.03125 0)"/>
     <use xlink:href="#DejaVuSans-20" transform="translate(913.818359 0)"/>
     <use xlink:href="#DejaVuSans-70" transform="translate(945.605469 0)"/>
     <use xlink:href="#DejaVuSans-68" transform="translate(1009.082031 0)"/>
     <use xlink:href="#DejaVuSans-69" transform="translate(1072.460938 0)"/>
     <use xlink:href="#DejaVuSans-20" transform="translate(1100.244141 0)"/>
     <use xlink:href="#DejaVuSans-3d" transform="translate(1132.03125 0)"/>
     <use xlink:href="#DejaVuSans-20" transform="translate(1215.820312 0)"/>
     <use xlink:href="#DejaVuSans-30" transform="translate(1247.607422 0)"/>
     <use xlink:href="#DejaVuSans-2e" transform="translate(1311.230469 0)"/>
     <use xlink:href="#DejaVuSans-37" transform="translate(1343.017578 0)"/>
     <use xlink:href="#DejaVuSans-38" transform="translate(1406.640625 0)"/>
     <use xlink:href="#DejaVuSans-35" transform="translate(1470.263672 0)"/>
     <use xlink:href="#DejaVuSans-2c" transform="translate(1533.886719 0)"/>
     <use xlink:href="#DejaVuSans-20" transform="translate(1565.673828 0)"/>
     <use xlink:href="#DejaVuSans-4d" transform="translate(1597.460938 0)"/>
     <use xlink:href="#DejaVuSans-20" transform="translate(1683.740234 0)"/>
     <use xlink:href="#DejaVuSans-3d" transform="translate(1715.527344 0)"/>
     <use xlink:href="#DejaVuSans-20" transform="translate(1799.316406 0)"/>
     <use xlink:href="#DejaVuSans-30" transform="translate(1831.103516 0)"/>
     <use xlink:href="#DejaVuSans-2e" transform="translate(1894.726562 0)"/>
     <use xlink:href="#DejaVuSans-35" transform="translate(1926.513672 0)"/>
    </g>
   </g>
  </g>
 </g>
 <defs>
  <clipPath id="pccf0ace58e">
   <rect x="53.35625" y="24.597656" width="364.39" height="281.08"/>
  </clipPath>
 </defs>
</svg>
