<?xml version="1.0" encoding="utf-8" standalone="no"?>
<!DOCTYPE svg PUBLIC "-//W3C//DTD SVG 1.1//EN"
  "http://www.w3.org/Graphics/SVG/1.1/DTD/svg11.dtd">
<svg xmlns:xlink="http://www.w3.org/1999/xlink" width="424.94625pt" height="352.912031pt" viewBox="0 0 424.94625 352.912031" xmlns="http://www.w3.org/2000/svg" version="1.1">
 <metadata>
  <rdf:RDF xmlns:dc="http://purl.org/dc/elements/1.1/" xmlns:cc="http://creativecommons.org/ns#" xmlns:rdf="http://www.w3.org/1999/02/22-rdf-syntax-ns#">
   <cc:Work>
    <dc:type rdf:resource="http://purl.org/dc/dcmitype/StillImage"/>
    <dc:date>2026-03-13T12:06:28.668031</dc:date>
    <dc:format>image/svg+xml</dc:format>
    <dc:creator>
     <cc:Agent>
      <dc:title>Matplotlib v3.10.8, https://matplotlib.org/</dc:title>
     </cc:Agent>
    </dc:creator>
   </cc:Work>
  </rdf:RDF>
 </metadata>
 <defs>
  <style type="text/css">*{stroke-linejoin: round; stroke-linecap: butt}</style>
 </defs>
 <g id="figure_1">
  <g id="patch_1">
   <path d="M 0 352.912031 
L 424.94625 352.912031 
L 424.94625 0 
L 0 0 
z
" style="fill: #ffffff"/>
  </g>
  <g id="axes_1">
   <g id="patch_2">
    <path d="M 53.35625 305.677656 
L 417.74625 305.677656 
L 417.74625 24.597656 
L 53.35625 24.597656 
z
" style="fill: #ffffff"/>
   </g>
   <g id="matplotlib.axis_1">
    <g id="xtick_1">
     <g id="line2d_1">
      <defs>
       <path id="m2a1c1e8cf7" d="M 0 0 
L 0 3.5 
" style="stroke: #000000; stroke-width: 0.8"/>
      </defs>
      <g>
       <use xlink:href="#m2a1c1e8cf7" x="69.919432" y="305.677656" style="stroke: #000000; stroke-width: 0.8"/>
      </g>
     </g>
     <g id="text_1">
      <!-- $\Gamma$ -->
      <g transform="translate(65.719432 324.075313) scale(0.15 -0.15)">
       <defs>
        <path id="DejaVuSans-393" d="M 628 0 
L 628 4666 
L 3531 4666 
L 3531 4134 
L 1259 4134 
L 1259 0 
L 628 0 
z
" transform="scale(0.015625)"/>
       </defs>
       <use xlink:href="#DejaVuSans-393" transform="translate(0 0.09375)"/>
      </g>
     </g>
    </g>
    <g id="xtick_2">
     <g id="line2d_2">
      <g>
       <use xlink:href="#m2a1c1e8cf7" x="180.340644" y="305.677656" style="stroke: #000000; stroke-width: 0.8"/>
      </g>
     </g>
     <g id="text_2">
      <!-- K' -->
      <g transform="translate(173.360956 324.075313) scale(0.15 -0.15)">
       <defs>
        <path id="DejaVuSans-4b" d="M 628 4666 
L 1259 4666 
L 1259 2694 
L 3353 4666 
L 4166 4666 
L 1850 2491 
L 4331 0 
L 3500 0 
L 1259 2247 
L 1259 0 
L 628 0 
L 628 4666 
z
" transform="scale(0.015625)"/>
        <path id="DejaVuSans-27" d="M 1147 4666 
L 1147 2931 
L 616 2931 
L 616 4666 
L 1147 4666 
z
" transform="scale(0.015625)"/>
       </defs>
       <use xlink:href="#DejaVuSans-4b"/>
       <use xlink:href="#DejaVuSans-27" transform="translate(65.576172 0)"/>
      </g>
     </g>
    </g>
    <g id="xtick_3">
     <g id="line2d_3">
      <g>
       <use xlink:href="#m2a1c1e8cf7" x="234.424503" y="305.677656" style="stroke: #000000; stroke-width: 0.8"/>
      </g>
     </g>
     <g id="text_3">
      <!-- M -->
      <g transform="translate(227.953409 324.075313) scale(0.15 -0.15)">
       <defs>
        <path id="DejaVuSans-4d" d="M 628 4666 
L 1569 4666 
L 2759 1491 
L 3956 4666 
L 4897 4666 
L 4897 0 
L 4281 0 
L 4281 4097 
L 3078 897 
L 2444 897 
L 1241 4097 
L 1241 0 
L 628 0 
L 628 4666 
z
" transform="scale(0.015625)"/>
       </defs>
       <use xlink:href="#DejaVuSans-4d"/>
      </g>
     </g>
    </g>
    <g id="xtick_4">
     <g id="line2d_4">
      <g>
       <use xlink:href="#m2a1c1e8cf7" x="290.761856" y="305.677656" style="stroke: #000000; stroke-width: 0.8"/>
      </g>
     </g>
     <g id="text_4">
      <!-- K -->
      <g transform="translate(285.843497 324.075313) scale(0.15 -0.15)">
       <use xlink:href="#DejaVuSans-4b"/>
      </g>
     </g>
    </g>
    <g id="xtick_5">
     <g id="line2d_5">
      <g>
       <use xlink:href="#m2a1c1e8cf7" x="401.183068" y="305.677656" style="stroke: #000000; stroke-width: 0.8"/>
      </g>
     </g>
     <g id="text_5">
      <!-- $\Gamma$ -->
      <g transform="translate(396.983068 324.075313) scale(0.15 -0.15)">
       <use xlink:href="#DejaVuSans-393" transform="translate(0 0.09375)"/>
      </g>
     </g>
    </g>
    <g id="text_6">
     <!-- k-path -->
     <g transform="translate(211.451641 342.5925) scale(0.15 -0.15)">
      <defs>
       <path id="DejaVuSans-6b" d="M 581 4863 
L 1159 4863 
L 1159 1991 
L 2875 3500 
L 3609 3500 
L 1753 1863 
L 3688 0 
L 2938 0 
L 1159 1709 
L 1159 0 
L 581 0 
L 581 4863 
z
" transform="scale(0.015625)"/>
       <path id="DejaVuSans-2d" d="M 313 2009 
L 1997 2009 
L 1997 1497 
L 313 1497 
L 313 2009 
z
" transform="scale(0.015625)"/>
       <path id="DejaVuSans-70" d="M 1159 525 
L 1159 -1331 
L 581 -1331 
L 581 3500 
L 1159 3500 
L 1159 2969 
Q 1341 3281 1617 3432 
Q 1894 3584 2278 3584 
Q 2916 3584 3314 3078 
Q 3713 2572 3713 1747 
Q 3713 922 3314 415 
Q 2916 -91 2278 -91 
Q 1894 -91 1617 61 
Q 1341 213 1159 525 
z
M 3116 1747 
Q 3116 2381 2855 2742 
Q 2594 3103 2138 3103 
Q 1681 3103 1420 2742 
Q 1159 2381 1159 1747 
Q 1159 1113 1420 752 
Q 1681 391 2138 391 
Q 2594 391 2855 752 
Q 3116 1113 3116 1747 
z
" transform="scale(0.015625)"/>
       <path id="DejaVuSans-61" d="M 2194 1759 
Q 1497 1759 1228 1600 
Q 959 1441 959 1056 
Q 959 750 1161 570 
Q 1363 391 1709 391 
Q 2188 391 2477 730 
Q 2766 1069 2766 1631 
L 2766 1759 
L 2194 1759 
z
M 3341 1997 
L 3341 0 
L 2766 0 
L 2766 531 
Q 2569 213 2275 61 
Q 1981 -91 1556 -91 
Q 1019 -91 701 211 
Q 384 513 384 1019 
Q 384 1609 779 1909 
Q 1175 2209 1959 2209 
L 2766 2209 
L 2766 2266 
Q 2766 2663 2505 2880 
Q 2244 3097 1772 3097 
Q 1472 3097 1187 3025 
Q 903 2953 641 2809 
L 641 3341 
Q 956 3463 1253 3523 
Q 1550 3584 1831 3584 
Q 2591 3584 2966 3190 
Q 3341 2797 3341 1997 
z
" transform="scale(0.015625)"/>
       <path id="DejaVuSans-74" d="M 1172 4494 
L 1172 3500 
L 2356 3500 
L 2356 3053 
L 1172 3053 
L 1172 1153 
Q 1172 725 1289 603 
Q 1406 481 1766 481 
L 2356 481 
L 2356 0 
L 1766 0 
Q 1100 0 847 248 
Q 594 497 594 1153 
L 594 3053 
L 172 3053 
L 172 3500 
L 594 3500 
L 594 4494 
L 1172 4494 
z
" transform="scale(0.015625)"/>
       <path id="DejaVuSans-68" d="M 3513 2113 
L 3513 0 
L 2938 0 
L 2938 2094 
Q 2938 2591 2744 2837 
Q 2550 3084 2163 3084 
Q 1697 3084 1428 2787 
Q 1159 2491 1159 1978 
L 1159 0 
L 581 0 
L 581 4863 
L 1159 4863 
L 1159 2956 
Q 1366 3272 1645 3428 
Q 1925 3584 2291 3584 
Q 2894 3584 3203 3211 
Q 3513 2838 3513 2113 
z
" transform="scale(0.015625)"/>
      </defs>
      <use xlink:href="#DejaVuSans-6b"/>
      <use xlink:href="#DejaVuSans-2d" transform="translate(57.910156 0)"/>
      <use xlink:href="#DejaVuSans-70" transform="translate(93.994141 0)"/>
      <use xlink:href="#DejaVuSans-61" transform="translate(157.470703 0)"/>
      <use xlink:href="#DejaVuSans-74" transform="translate(218.75 0)"/>
      <use xlink:href="#DejaVuSans-68" transform="translate(257.958984 0)"/>
     </g>
    </g>
   </g>
   <g id="matplotlib.axis_2">
    <g id="ytick_1">
     <g id="line2d_6">
      <defs>
       <path id="mc0275fb358" d="M 0 0 
L -3.5 0 
" style="stroke: #000000; stroke-width: 0.8"/>
      </defs>
      <g>
       <use xlink:href="#mc0275fb358" x="53.35625" y="292.901293" style="stroke: #000000; stroke-width: 0.8"/>
      </g>
     </g>
     <g id="text_7">
      <!-- −3 -->
      <g transform="translate(25.717188 298.220199) scale(0.14 -0.14)">
       <defs>
        <path id="DejaVuSans-2212" d="M 678 2272 
L 4684 2272 
L 4684 1741 
L 678 1741 
L 678 2272 
z
" transform="scale(0.015625)"/>
        <path id="DejaVuSans-33" d="M 2597 2516 
Q 3050 2419 3304 2112 
Q 3559 1806 3559 1356 
Q 3559 666 3084 287 
Q 2609 -91 1734 -91 
Q 1441 -91 1130 -33 
Q 819 25 488 141 
L 488 750 
Q 750 597 1062 519 
Q 1375 441 1716 441 
Q 2309 441 2620 675 
Q 2931 909 2931 1356 
Q 2931 1769 2642 2001 
Q 2353 2234 1838 2234 
L 1294 2234 
L 1294 2753 
L 1863 2753 
Q 2328 2753 2575 2939 
Q 2822 3125 2822 3475 
Q 2822 3834 2567 4026 
Q 2313 4219 1838 4219 
Q 1578 4219 1281 4162 
Q 984 4106 628 3988 
L 628 4550 
Q 988 4650 1302 4700 
Q 1616 4750 1894 4750 
Q 2613 4750 3031 4423 
Q 3450 4097 3450 3541 
Q 3450 3153 3228 2886 
Q 3006 2619 2597 2516 
z
" transform="scale(0.015625)"/>
       </defs>
       <use xlink:href="#DejaVuSans-2212"/>
       <use xlink:href="#DejaVuSans-33" transform="translate(83.789062 0)"/>
      </g>
     </g>
    </g>
    <g id="ytick_2">
     <g id="line2d_7">
      <g>
       <use xlink:href="#mc0275fb358" x="53.35625" y="250.313414" style="stroke: #000000; stroke-width: 0.8"/>
      </g>
     </g>
     <g id="text_8">
      <!-- −2 -->
      <g transform="translate(25.717188 255.63232) scale(0.14 -0.14)">
       <defs>
        <path id="DejaVuSans-32" d="M 1228 531 
L 3431 531 
L 3431 0 
L 469 0 
L 469 531 
Q 828 903 1448 1529 
Q 2069 2156 2228 2338 
Q 2531 2678 2651 2914 
Q 2772 3150 2772 3378 
Q 2772 3750 2511 3984 
Q 2250 4219 1831 4219 
Q 1534 4219 1204 4116 
Q 875 4013 500 3803 
L 500 4441 
Q 881 4594 1212 4672 
Q 1544 4750 1819 4750 
Q 2544 4750 2975 4387 
Q 3406 4025 3406 3419 
Q 3406 3131 3298 2873 
Q 3191 2616 2906 2266 
Q 2828 2175 2409 1742 
Q 1991 1309 1228 531 
z
" transform="scale(0.015625)"/>
       </defs>
       <use xlink:href="#DejaVuSans-2212"/>
       <use xlink:href="#DejaVuSans-32" transform="translate(83.789062 0)"/>
      </g>
     </g>
    </g>
    <g id="ytick_3">
     <g id="line2d_8">
      <g>
       <use xlink:href="#mc0275fb358" x="53.35625" y="207.725535" style="stroke: #000000; stroke-width: 0.8"/>
      </g>
     </g>
     <g id="text_9">
      <!-- −1 -->
      <g transform="translate(25.717188 213.044441) scale(0.14 -0.14)">
       <defs>
        <path id="DejaVuSans-31" d="M 794 531 
L 1825 531 
L 1825 4091 
L 703 3866 
L 703 4441 
L 1819 4666 
L 2450 4666 
L 2450 531 
L 3481 531 
L 3481 0 
L 794 0 
L 794 531 
z
" transform="scale(0.015625)"/>
       </defs>
       <use xlink:href="#DejaVuSans-2212"/>
       <use xlink:href="#DejaVuSans-31" transform="translate(83.789062 0)"/>
      </g>
     </g>
    </g>
    <g id="ytick_4">
     <g id="line2d_9">
      <g>
       <use xlink:href="#mc0275fb358" x="53.35625" y="165.137656" style="stroke: #000000; stroke-width: 0.8"/>
      </g>
     </g>
     <g id="text_10">
      <!-- 0 -->
      <g transform="translate(37.44875 170.456563) scale(0.14 -0.14)">
       <defs>
        <path id="DejaVuSans-30" d="M 2034 4250 
Q 1547 4250 1301 3770 
Q 1056 3291 1056 2328 
Q 1056 1369 1301 889 
Q 1547 409 2034 409 
Q 2525 409 2770 889 
Q 3016 1369 3016 2328 
Q 3016 3291 2770 3770 
Q 2525 4250 2034 4250 
z
M 2034 4750 
Q 2819 4750 3233 4129 
Q 3647 3509 3647 2328 
Q 3647 1150 3233 529 
Q 2819 -91 2034 -91 
Q 1250 -91 836 529 
Q 422 1150 422 2328 
Q 422 3509 836 4129 
Q 1250 4750 2034 4750 
z
" transform="scale(0.015625)"/>
       </defs>
       <use xlink:href="#DejaVuSans-30"/>
      </g>
     </g>
    </g>
    <g id="ytick_5">
     <g id="line2d_10">
      <g>
       <use xlink:href="#mc0275fb358" x="53.35625" y="122.549777" style="stroke: #000000; stroke-width: 0.8"/>
      </g>
     </g>
     <g id="text_11">
      <!-- 1 -->
      <g transform="translate(37.44875 127.868684) scale(0.14 -0.14)">
       <use xlink:href="#DejaVuSans-31"/>
      </g>
     </g>
    </g>
    <g id="ytick_6">
     <g id="line2d_11">
      <g>
       <use xlink:href="#mc0275fb358" x="53.35625" y="79.961899" style="stroke: #000000; stroke-width: 0.8"/>
      </g>
     </g>
     <g id="text_12">
      <!-- 2 -->
      <g transform="translate(37.44875 85.280805) scale(0.14 -0.14)">
       <use xlink:href="#DejaVuSans-32"/>
      </g>
     </g>
    </g>
    <g id="ytick_7">
     <g id="line2d_12">
      <g>
       <use xlink:href="#mc0275fb358" x="53.35625" y="37.37402" style="stroke: #000000; stroke-width: 0.8"/>
      </g>
     </g>
     <g id="text_13">
      <!-- 3 -->
      <g transform="translate(37.44875 42.692926) scale(0.14 -0.14)">
       <use xlink:href="#DejaVuSans-33"/>
      </g>
     </g>
    </g>
    <g id="text_14">
     <!-- Energy -->
     <g transform="translate(18.597656 191.397031) rotate(-90) scale(0.15 -0.15)">
      <defs>
       <path id="DejaVuSans-45" d="M 628 4666 
L 3578 4666 
L 3578 4134 
L 1259 4134 
L 1259 2753 
L 3481 2753 
L 3481 2222 
L 1259 2222 
L 1259 531 
L 3634 531 
L 3634 0 
L 628 0 
L 628 4666 
z
" transform="scale(0.015625)"/>
       <path id="DejaVuSans-6e" d="M 3513 2113 
L 3513 0 
L 2938 0 
L 2938 2094 
Q 2938 2591 2744 2837 
Q 2550 3084 2163 3084 
Q 1697 3084 1428 2787 
Q 1159 2491 1159 1978 
L 1159 0 
L 581 0 
L 581 3500 
L 1159 3500 
L 1159 2956 
Q 1366 3272 1645 3428 
Q 1925 3584 2291 3584 
Q 2894 3584 3203 3211 
Q 3513 2838 3513 2113 
z
" transform="scale(0.015625)"/>
       <path id="DejaVuSans-65" d="M 3597 1894 
L 3597 1613 
L 953 1613 
Q 991 1019 1311 708 
Q 1631 397 2203 397 
Q 2534 397 2845 478 
Q 3156 559 3463 722 
L 3463 178 
Q 3153 47 2828 -22 
Q 2503 -91 2169 -91 
Q 1331 -91 842 396 
Q 353 884 353 1716 
Q 353 2575 817 3079 
Q 1281 3584 2069 3584 
Q 2775 3584 3186 3129 
Q 3597 2675 3597 1894 
z
M 3022 2063 
Q 3016 2534 2758 2815 
Q 2500 3097 2075 3097 
Q 1594 3097 1305 2825 
Q 1016 2553 972 2059 
L 3022 2063 
z
" transform="scale(0.015625)"/>
       <path id="DejaVuSans-72" d="M 2631 2963 
Q 2534 3019 2420 3045 
Q 2306 3072 2169 3072 
Q 1681 3072 1420 2755 
Q 1159 2438 1159 1844 
L 1159 0 
L 581 0 
L 581 3500 
L 1159 3500 
L 1159 2956 
Q 1341 3275 1631 3429 
Q 1922 3584 2338 3584 
Q 2397 3584 2469 3576 
Q 2541 3569 2628 3553 
L 2631 2963 
z
" transform="scale(0.015625)"/>
       <path id="DejaVuSans-67" d="M 2906 1791 
Q 2906 2416 2648 2759 
Q 2391 3103 1925 3103 
Q 1463 3103 1205 2759 
Q 947 2416 947 1791 
Q 947 1169 1205 825 
Q 1463 481 1925 481 
Q 2391 481 2648 825 
Q 2906 1169 2906 1791 
z
M 3481 434 
Q 3481 -459 3084 -895 
Q 2688 -1331 1869 -1331 
Q 1566 -1331 1297 -1286 
Q 1028 -1241 775 -1147 
L 775 -588 
Q 1028 -725 1275 -790 
Q 1522 -856 1778 -856 
Q 2344 -856 2625 -561 
Q 2906 -266 2906 331 
L 2906 616 
Q 2728 306 2450 153 
Q 2172 0 1784 0 
Q 1141 0 747 490 
Q 353 981 353 1791 
Q 353 2603 747 3093 
Q 1141 3584 1784 3584 
Q 2172 3584 2450 3431 
Q 2728 3278 2906 2969 
L 2906 3500 
L 3481 3500 
L 3481 434 
z
" transform="scale(0.015625)"/>
       <path id="DejaVuSans-79" d="M 2059 -325 
Q 1816 -950 1584 -1140 
Q 1353 -1331 966 -1331 
L 506 -1331 
L 506 -850 
L 844 -850 
Q 1081 -850 1212 -737 
Q 1344 -625 1503 -206 
L 1606 56 
L 191 3500 
L 800 3500 
L 1894 763 
L 2988 3500 
L 3597 3500 
L 2059 -325 
z
" transform="scale(0.015625)"/>
      </defs>
      <use xlink:href="#DejaVuSans-45"/>
      <use xlink:href="#DejaVuSans-6e" transform="translate(63.183594 0)"/>
      <use xlink:href="#DejaVuSans-65" transform="translate(126.5625 0)"/>
      <use xlink:href="#DejaVuSans-72" transform="translate(188.085938 0)"/>
      <use xlink:href="#DejaVuSans-67" transform="translate(227.449219 0)"/>
      <use xlink:href="#DejaVuSans-79" transform="translate(290.925781 0)"/>
     </g>
    </g>
   </g>
   <g id="line2d_13">
    <path d="M 69.919432 292.901293 
L 72.172926 292.823499 
L 74.42642 292.59026 
L 76.679914 292.202001 
L 78.933408 291.659432 
L 81.186902 290.963544 
L 83.440397 290.115608 
L 85.693891 289.117173 
L 87.947385 287.970062 
L 90.200879 286.676372 
L 92.454373 285.238465 
L 94.707867 283.658968 
L 99.214855 280.086997 
L 103.721844 275.986547 
L 108.228832 271.387565 
L 112.73582 266.323639 
L 117.242808 260.831751 
L 121.749797 254.952012 
L 126.256785 248.727362 
L 130.763773 242.203263 
L 137.524256 231.960388 
L 146.538232 217.714275 
L 166.819679 185.241169 
L 173.580162 174.92008 
L 178.08715 168.328486 
L 180.340644 165.137656 
L 184.847632 171.280247 
L 189.35462 177.066944 
L 193.861609 182.455484 
L 198.368597 187.406514 
L 202.875585 191.883873 
L 207.382573 195.854864 
L 211.889562 199.290483 
L 214.143056 200.79953 
L 216.39655 202.165641 
L 218.650044 203.38632 
L 220.903538 204.459337 
L 223.157032 205.382734 
L 225.410526 206.154822 
L 227.664021 206.774192 
L 229.917515 207.239712 
L 232.171009 207.550532 
L 234.424503 207.706084 
L 236.677997 207.706084 
L 238.931491 207.550532 
L 241.184985 207.239712 
L 243.438479 206.774192 
L 245.691974 206.154822 
L 247.945468 205.382734 
L 250.198962 204.459337 
L 252.452456 203.38632 
L 254.70595 202.165641 
L 256.959444 200.79953 
L 259.212938 199.290483 
L 263.719927 195.854864 
L 268.226915 191.883873 
L 272.733903 187.406514 
L 277.240891 182.455484 
L 281.74788 177.066944 
L 286.254868 171.280247 
L 290.761856 165.137656 
L 295.268844 171.59128 
L 302.029327 181.751264 
L 308.789809 192.337744 
L 322.310774 214.090727 
L 331.32475 228.449145 
L 338.085233 238.843734 
L 344.845715 248.727362 
L 349.352703 254.952012 
L 353.859692 260.831751 
L 358.36668 266.323639 
L 362.873668 271.387565 
L 367.380656 275.986547 
L 371.887645 280.086997 
L 376.394633 283.658968 
L 378.648127 285.238465 
L 380.901621 286.676372 
L 383.155115 287.970062 
L 385.408609 289.117173 
L 387.662103 290.115608 
L 389.915598 290.963544 
L 392.169092 291.659432 
L 394.422586 292.202001 
L 396.67608 292.59026 
L 398.929574 292.823499 
L 401.183068 292.901293 
L 401.183068 292.901293 
" clip-path="url(#peb02a54c95)" style="fill: none; stroke: #000080; stroke-width: 1.5; stroke-linecap: square"/>
   </g>
   <g id="line2d_14">
    <path d="M 69.919432 37.37402 
L 72.172926 37.451814 
L 74.42642 37.685053 
L 76.679914 38.073312 
L 78.933408 38.615881 
L 81.186902 39.311769 
L 83.440397 40.159705 
L 85.693891 41.15814 
L 87.947385 42.30525 
L 90.200879 43.59894 
L 92.454373 45.036847 
L 94.707867 46.616345 
L 99.214855 50.188315 
L 103.721844 54.288765 
L 108.228832 58.887747 
L 112.73582 63.951674 
L 117.242808 69.443561 
L 121.749797 75.323301 
L 126.256785 81.54795 
L 130.763773 88.07205 
L 137.524256 98.314925 
L 146.538232 112.561037 
L 166.819679 145.034143 
L 173.580162 155.355232 
L 178.08715 161.946827 
L 180.340644 165.137656 
L 184.847632 158.995065 
L 189.35462 153.208368 
L 193.861609 147.819828 
L 198.368597 142.868799 
L 202.875585 138.391439 
L 207.382573 134.420449 
L 211.889562 130.984829 
L 214.143056 129.475782 
L 216.39655 128.109672 
L 218.650044 126.888993 
L 220.903538 125.815975 
L 223.157032 124.892579 
L 225.410526 124.12049 
L 227.664021 123.50112 
L 229.917515 123.0356 
L 232.171009 122.72478 
L 234.424503 122.569228 
L 236.677997 122.569228 
L 238.931491 122.72478 
L 241.184985 123.0356 
L 243.438479 123.50112 
L 245.691974 124.12049 
L 247.945468 124.892579 
L 250.198962 125.815975 
L 252.452456 126.888993 
L 254.70595 128.109672 
L 256.959444 129.475782 
L 259.212938 130.984829 
L 263.719927 134.420449 
L 268.226915 138.391439 
L 272.733903 142.868799 
L 277.240891 147.819828 
L 281.74788 153.208368 
L 286.254868 158.995065 
L 290.761856 165.137656 
L 295.268844 158.684032 
L 302.029327 148.524049 
L 308.789809 137.937568 
L 322.310774 116.184585 
L 331.32475 101.826168 
L 338.085233 91.431579 
L 344.845715 81.54795 
L 349.352703 75.323301 
L 353.859692 69.443561 
L 358.36668 63.951674 
L 362.873668 58.887747 
L 367.380656 54.288765 
L 371.887645 50.188315 
L 376.394633 46.616345 
L 378.648127 45.036847 
L 380.901621 43.59894 
L 383.155115 42.30525 
L 385.408609 41.15814 
L 387.662103 40.159705 
L 389.915598 39.311769 
L 392.169092 38.615881 
L 394.422586 38.073312 
L 396.67608 37.685053 
L 398.929574 37.451814 
L 401.183068 37.37402 
L 401.183068 37.37402 
" clip-path="url(#peb02a54c95)" style="fill: none; stroke: #000080; stroke-width: 1.5; stroke-linecap: square"/>
   </g>
   <g id="line2d_15">
    <path d="M 69.919432 305.677656 
L 69.919432 24.597656 
" clip-path="url(#peb02a54c95)" style="fill: none; stroke-dasharray: 1.5,2.475; stroke-dashoffset: 0; stroke: #808080; stroke-opacity: 0.7; stroke-width: 1.5"/>
   </g>
   <g id="line2d_16">
    <path d="M 180.340644 305.677656 
L 180.340644 24.597656 
" clip-path="url(#peb02a54c95)" style="fill: none; stroke-dasharray: 1.5,2.475; stroke-dashoffset: 0; stroke: #808080; stroke-opacity: 0.7; stroke-width: 1.5"/>
   </g>
   <g id="line2d_17">
    <path d="M 234.424503 305.677656 
L 234.424503 24.597656 
" clip-path="url(#peb02a54c95)" style="fill: none; stroke-dasharray: 1.5,2.475; stroke-dashoffset: 0; stroke: #808080; stroke-opacity: 0.7; stroke-width: 1.5"/>
   </g>
   <g id="line2d_18">
    <path d="M 290.761856 305.677656 
L 290.761856 24.597656 
" clip-path="url(#peb02a54c95)" style="fill: none; stroke-dasharray: 1.5,2.475; stroke-dashoffset: 0; stroke: #808080; stroke-opacity: 0.7; stroke-width: 1.5"/>
   </g>
   <g id="line2d_19">
    <path d="M 401.183068 305.677656 
L 401.183068 24.597656 
" clip-path="url(#peb02a54c95)" style="fill: none; stroke-dasharray: 1.5,2.475; stroke-dashoffset: 0; stroke: #808080; stroke-opacity: 0.7; stroke-width: 1.5"/>
   </g>
   <g id="patch_3">
    <path d="M 53.35625 305.677656 
L 53.35625 24.597656 
" style="fill: none; stroke: #000000; stroke-width: 0.8; stroke-linejoin: miter; stroke-linecap: square"/>
   </g>
   <g id="patch_4">
    <path d="M 417.74625 305.677656 
L 417.74625 24.597656 
" style="fill: none; stroke: #000000; stroke-width: 0.8; stroke-linejoin: miter; stroke-linecap: square"/>
   </g>
   <g id="patch_5">
    <path d="M 53.35625 305.677656 
L 417.74625 305.677656 
" style="fill: none; stroke: #000000; stroke-width: 0.8; stroke-linejoin: miter; stroke-linecap: square"/>
   </g>
   <g id="patch_6">
    <path d="M 53.35625 24.597656 
L 417.74625 24.597656 
" style="fill: none; stroke: #000000; stroke-width: 0.8; stroke-linejoin: miter; stroke-linecap: square"/>
   </g>
   <g id="text_15">
    <!-- t1 = 1.0, t2 = 0, phi = 0.785, M = 0 -->
    <g transform="translate(100.606328 18.597656) scale(0.15 -0.15)">
     <defs>
      <path id="DejaVuSans-20" transform="scale(0.015625)"/>
      <path id="DejaVuSans-3d" d="M 678 2906 
L 4684 2906 
L 4684 2381 
L 678 2381 
L 678 2906 
z
M 678 1631 
L 4684 1631 
L 4684 1100 
L 678 1100 
L 678 1631 
z
" transform="scale(0.015625)"/>
      <path id="DejaVuSans-2e" d="M 684 794 
L 1344 794 
L 1344 0 
L 684 0 
L 684 794 
z
" transform="scale(0.015625)"/>
      <path id="DejaVuSans-2c" d="M 750 794 
L 1409 794 
L 1409 256 
L 897 -744 
L 494 -744 
L 750 256 
L 750 794 
z
" transform="scale(0.015625)"/>
      <path id="DejaVuSans-69" d="M 603 3500 
L 1178 3500 
L 1178 0 
L 603 0 
L 603 3500 
z
M 603 4863 
L 1178 4863 
L 1178 4134 
L 603 4134 
L 603 4863 
z
" transform="scale(0.015625)"/>
      <path id="DejaVuSans-37" d="M 525 4666 
L 3525 4666 
L 3525 4397 
L 1831 0 
L 1172 0 
L 2766 4134 
L 525 4134 
L 525 4666 
z
" transform="scale(0.015625)"/>
      <path id="DejaVuSans-38" d="M 2034 2216 
Q 1584 2216 1326 1975 
Q 1069 1734 1069 1313 
Q 1069 891 1326 650 
Q 1584 409 2034 409 
Q 2484 409 2743 651 
Q 3003 894 3003 1313 
Q 3003 1734 2745 1975 
Q 2488 2216 2034 2216 
z
M 1403 2484 
Q 997 2584 770 2862 
Q 544 3141 544 3541 
Q 544 4100 942 4425 
Q 1341 4750 2034 4750 
Q 2731 4750 3128 4425 
Q 3525 4100 3525 3541 
Q 3525 3141 3298 2862 
Q 3072 2584 2669 2484 
Q 3125 2378 3379 2068 
Q 3634 1759 3634 1313 
Q 3634 634 3220 271 
Q 2806 -91 2034 -91 
Q 1263 -91 848 271 
Q 434 634 434 1313 
Q 434 1759 690 2068 
Q 947 2378 1403 2484 
z
M 1172 3481 
Q 1172 3119 1398 2916 
Q 1625 2713 2034 2713 
Q 2441 2713 2670 2916 
Q 2900 3119 2900 3481 
Q 2900 3844 2670 4047 
Q 2441 4250 2034 4250 
Q 1625 4250 1398 4047 
Q 1172 3844 1172 3481 
z
" transform="scale(0.015625)"/>
      <path id="DejaVuSans-35" d="M 691 4666 
L 3169 4666 
L 3169 4134 
L 1269 4134 
L 1269 2991 
Q 1406 3038 1543 3061 
Q 1681 3084 1819 3084 
Q 2600 3084 3056 2656 
Q 3513 2228 3513 1497 
Q 3513 744 3044 326 
Q 2575 -91 1722 -91 
Q 1428 -91 1123 -41 
Q 819 9 494 109 
L 494 744 
Q 775 591 1075 516 
Q 1375 441 1709 441 
Q 2250 441 2565 725 
Q 2881 1009 2881 1497 
Q 2881 1984 2565 2268 
Q 2250 2553 1709 2553 
Q 1456 2553 1204 2497 
Q 953 2441 691 2322 
L 691 4666 
z
" transform="scale(0.015625)"/>
     </defs>
     <use xlink:href="#DejaVuSans-74"/>
     <use xlink:href="#DejaVuSans-31" transform="translate(39.208984 0)"/>
     <use xlink:href="#DejaVuSans-20" transform="translate(102.832031 0)"/>
     <use xlink:href="#DejaVuSans-3d" transform="translate(134.619141 0)"/>
     <use xlink:href="#DejaVuSans-20" transform="translate(218.408203 0)"/>
     <use xlink:href="#DejaVuSans-31" transform="translate(250.195312 0)"/>
     <use xlink:href="#DejaVuSans-2e" transform="translate(313.818359 0)"/>
     <use xlink:href="#DejaVuSans-30" transform="translate(345.605469 0)"/>
     <use xlink:href="#DejaVuSans-2c" transform="translate(409.228516 0)"/>
     <use xlink:href="#DejaVuSans-20" transform="translate(441.015625 0)"/>
     <use xlink:href="#DejaVuSans-74" transform="translate(472.802734 0)"/>
     <use xlink:href="#DejaVuSans-32" transform="translate(512.011719 0)"/>
     <use xlink:href="#DejaVuSans-20" transform="translate(575.634766 0)"/>
     <use xlink:href="#DejaVuSans-3d" transform="translate(607.421875 0)"/>
     <use xlink:href="#DejaVuSans-20" transform="translate(691.210938 0)"/>
     <use xlink:href="#DejaVuSans-30" transform="translate(722.998047 0)"/>
     <use xlink:href="#DejaVuSans-2c" transform="translate(786.621094 0)"/>
     <use xlink:href="#DejaVuSans-20" transform="translate(818.408203 0)"/>
     <use xlink:href="#DejaVuSans-70" transform="translate(850.195312 0)"/>
     <use xlink:href="#DejaVuSans-68" transform="translate(913.671875 0)"/>
     <use xlink:href="#DejaVuSans-69" transform="translate(977.050781 0)"/>
     <use xlink:href="#DejaVuSans-20" transform="translate(1004.833984 0)"/>
     <use xlink:href="#DejaVuSans-3d" transform="translate(1036.621094 0)"/>
     <use xlink:href="#DejaVuSans-20" transform="translate(1120.410156 0)"/>
     <use xlink:href="#DejaVuSans-30" transform="translate(1152.197266 0)"/>
     <use xlink:href="#DejaVuSans-2e" transform="translate(1215.820312 0)"/>
     <use xlink:href="#DejaVuSans-37" transform="translate(1247.607422 0)"/>
     <use xlink:href="#DejaVuSans-38" transform="translate(1311.230469 0)"/>
     <use xlink:href="#DejaVuSans-35" transform="translate(1374.853516 0)"/>
     <use xlink:href="#DejaVuSans-2c" transform="translate(1438.476562 0)"/>
     <use xlink:href="#DejaVuSans-20" transform="translate(1470.263672 0)"/>
     <use xlink:href="#DejaVuSans-4d" transform="translate(1502.050781 0)"/>
     <use xlink:href="#DejaVuSans-20" transform="translate(1588.330078 0)"/>
     <use xlink:href="#DejaVuSans-3d" transform="translate(1620.117188 0)"/>
     <use xlink:href="#DejaVuSans-20" transform="translate(1703.90625 0)"/>
     <use xlink:href="#DejaVuSans-30" transform="translate(1735.693359 0)"/>
    </g>
   </g>
  </g>
 </g>
 <defs>
  <clipPath id="peb02a54c95">
   <rect x="53.35625" y="24.597656" width="364.39" height="281.08"/>
  </clipPath>
 </defs>
</svg>
